<?xml version="1.0" encoding="utf-8"?>
<!-- Generator: Adobe Illustrator 23.0.3, SVG Export Plug-In . SVG Version: 6.00 Build 0)  -->
<svg version="1.1" id="Layer_1" xmlns="http://www.w3.org/2000/svg" xmlns:xlink="http://www.w3.org/1999/xlink" x="0px" y="0px"
	 viewBox="0 0 226.8 226.8" style="enable-background:new 0 0 226.8 226.8;" xml:space="preserve">
<style type="text/css">
	.st0{fill:#8D5330;}
	.st1{fill:#BF7838;}
	.st2{fill:#DA9E55;}
	.st3{fill:#F1BC56;}
</style>
<title>Artboard 23</title>
<path class="st0" d="M220.7,69.2c0,12.3-8.8,23.9-24.9,32.8v8.6L104,18.9c3.2-0.2,6.4-0.2,9.4-0.2C154.5,18.7,220.7,32.7,220.7,69.2
	z"/>
<path class="st1" d="M195.8,110.7v74c0,4.6-1.4,9-3.9,12.8l0,0L30.7,36.3C50.9,25.3,80.1,20,104,18.9L195.8,110.7z"/>
<path class="st2" d="M191.8,197.5L191.8,197.5c-4.3,6.4-11.5,10.3-19.3,10.3h-61.2L31,127.4V102C14.9,93,6.1,81.5,6.1,69.2
	c0-14.2,10-25,24.6-32.9L191.8,197.5z"/>
<path class="st3" d="M111.3,207.7H54.2c-12.8,0-23.2-10.3-23.2-23.1v-57.3L111.3,207.7z"/>
</svg>
