<?xml version="1.0" encoding="utf-8"?>
<!-- Generator: Adobe Illustrator 23.0.3, SVG Export Plug-In . SVG Version: 6.00 Build 0)  -->
<svg version="1.1" xmlns="http://www.w3.org/2000/svg" xmlns:xlink="http://www.w3.org/1999/xlink" x="0px" y="0px"
	 viewBox="0 0 226.8 226.8" style="enable-background:new 0 0 226.8 226.8;" xml:space="preserve">
<style type="text/css">
	.st0{fill:#F1BC56;}
	.st1{fill:#DA9E55;}
	.st2{fill:#BF7838;}
	.st3{fill:#8D5330;}
	.st4{opacity:0.2;}
	.st5{fill:#FFFFFF;}
</style>
<g id="Layer_1">
	<title>Artboard 23</title>
	<path class="st0" d="M220.7,69.2c0,12.3-8.8,23.9-24.9,32.8v8.6L104,18.9c3.2-0.2,6.4-0.2,9.4-0.2
		C154.5,18.7,220.7,32.7,220.7,69.2z"/>
	<path class="st1" d="M195.8,110.7v74c0,4.6-1.4,9-3.9,12.8l0,0L30.7,36.3C50.9,25.3,80.1,20,104,18.9L195.8,110.7z"/>
	<path class="st2" d="M191.8,197.5L191.8,197.5c-4.3,6.4-11.5,10.3-19.3,10.3h-61.2L31,127.4V102C14.9,93,6.1,81.5,6.1,69.2
		c0-14.2,10-25,24.6-32.9L191.8,197.5z"/>
	<path class="st3" d="M111.3,207.7H54.2c-12.8,0-23.2-10.3-23.2-23.1v-57.3L111.3,207.7z"/>
</g>
<g id="Layer_2">
	<path class="st4" d="M172.7,207.7H54.1c-12.8,0-23.1-10.3-23.1-23.1v-43.9h164.8v43.9C195.8,197.4,185.5,207.7,172.7,207.7z"/>
	<g>
		<path class="st5" d="M64,155.6h3.6h11.2c4.7,0,8.3,1.4,10.8,4.2s3.7,6.9,3.7,12.2c0,5.9-1.3,10.4-3.8,13.5s-6.3,4.6-11.2,4.6H67.6
			H64V155.6z M71.2,184.2h6.1c2.9,0,5.1-1,6.6-3s2.2-4.9,2.2-8.9c0-3.6-0.7-6.3-2-8.1s-3.4-2.7-6.1-2.7h-6.7V184.2z"/>
		<path class="st5" d="M102.3,190.1v-34.5h25.4v3v3.1h-18.2v7.3h16.9v3v3h-16.9v9h19v3v3.1H102.3z"/>
		<path class="st5" d="M135.1,155.6h3.8h3.8l7.6,26.3h0l7.6-26.3h3.7h3.7l-11.7,34.5h-3.4h-3.4L135.1,155.6z"/>
	</g>
</g>
</svg>
