<svg xmlns="http://www.w3.org/2000/svg" viewBox="0 0 152.33 142.73"><defs><style>.a{fill:#939598;}</style></defs><title>top-right-arrow</title><path class="a" d="M141.6,30.62c.56-.74.9-1.27,1.32-1.72A31.75,31.75,0,0,0,149.77,18a7.8,7.8,0,0,1,.67-1.28,2,2,0,0,1,3.15-.6c1.71,1.21,2.33,3.12,3.27,4.84,1.48,2.66,3,5.28,4.56,7.92a4.73,4.73,0,0,1,.65,1.49,6.66,6.66,0,0,1-1.2-.66c-2.9-2.43-5.7-5-7.63-8.3-.25-.44-.79-1-1.2-1s-.79.63-1,1.08a25.87,25.87,0,0,1-8.45,8.92A3.51,3.51,0,0,1,141.6,30.62Z" transform="translate(-9.74 -15.52)"/><path class="a" d="M16.05,155.49c1.52,0,3,0,4.57,0,.89,0,1.33.32,1.35,1.25s-.31,1.43-1.31,1.43c-3,0-6,.06-9,.09a5.65,5.65,0,0,1-.59,0,1.3,1.3,0,0,1-1.31-1.53c0-.92.64-1.13,1.38-1.14,1.64,0,3.29,0,4.93,0Z" transform="translate(-9.74 -15.52)"/><path class="a" d="M137.59,78.88c.5-1,.9-1.81,1.26-2.61.88-2,1.77-3.94,2.6-5.94.41-1,1-1.08,1.9-.71s.8,1,.48,1.76c-1.15,2.6-2.24,5.23-3.45,7.8A1.7,1.7,0,0,1,139,80C138.51,79.9,138.09,79.3,137.59,78.88Z" transform="translate(-9.74 -15.52)"/><path class="a" d="M54.12,152.63a6.53,6.53,0,0,1-1-1.47c-.23-.73.19-1.16.94-1.4,2.7-.88,5.39-1.8,8.08-2.72.92-.32,1.45,0,1.84,1.12.31.89-.14,1.2-.91,1.45-2.52.82-5,1.69-7.52,2.54Z" transform="translate(-9.74 -15.52)"/><path class="a" d="M79.42,139.66a2.82,2.82,0,0,1,.6-.61c2.53-1.54,5.07-3.05,7.63-4.56a1.22,1.22,0,0,1,1.82.54,1.14,1.14,0,0,1-.42,1.75c-2.61,1.56-5.24,3.11-7.88,4.62C80.48,141.8,79.45,140.86,79.42,139.66Z" transform="translate(-9.74 -15.52)"/><path class="a" d="M147.47,52.05c.52-2.48,1-4.56,1.4-6.64.19-.86.39-1.72.57-2.58s.52-1.12,1.35-.91,1.41.51,1.21,1.45c-.41,2-.88,4.06-1.31,6.1-.19.86-.34,1.73-.52,2.59a1.14,1.14,0,0,1-1.63.92C148.06,52.81,147.71,52.27,147.47,52.05Z" transform="translate(-9.74 -15.52)"/><path class="a" d="M66.62,145.82c.13-.14.34-.57.68-.73,2.7-1.28,5.43-2.51,8.16-3.75a1,1,0,0,1,1.45.58c.27.68.63,1.38-.35,1.83-2.68,1.24-5.34,2.52-8,3.74C67.54,148,66.6,147.24,66.62,145.82Z" transform="translate(-9.74 -15.52)"/><path class="a" d="M120.56,105.94c.51.41,1.09.69,1.35,1.15a1.46,1.46,0,0,1-.33,1.23c-1.86,2.17-3.79,4.27-5.67,6.42-.62.71-1.21.82-1.93.13a1.22,1.22,0,0,1-.06-2c1.84-2,3.65-4.06,5.5-6.07A8.43,8.43,0,0,1,120.56,105.94Z" transform="translate(-9.74 -15.52)"/><path class="a" d="M104.43,125.47a5.57,5.57,0,0,1-1.21-1.29,1.41,1.41,0,0,1,.25-1.26c2.09-2,4.24-3.92,6.37-5.87.76-.7,1.41-.47,2.07.21s.34,1.23-.27,1.78c-2.08,1.88-4.14,3.78-6.22,5.67A11.55,11.55,0,0,1,104.43,125.47Z" transform="translate(-9.74 -15.52)"/><path class="a" d="M124.34,104.36c-1.39-.17-1.94-1.2-1.36-2,1.69-2.34,3.42-4.66,5.09-7a1.24,1.24,0,0,1,2-.3c.81.59.7,1.14.11,1.91-1.68,2.19-3.24,4.48-4.9,6.69A3.65,3.65,0,0,1,124.34,104.36Z" transform="translate(-9.74 -15.52)"/><path class="a" d="M101.68,127.47a8.4,8.4,0,0,1-.87.94c-2.36,1.79-4.73,3.56-7.08,5.36-.7.53-1.18.28-1.61-.33s-.86-1.25,0-1.86c2.42-1.79,4.83-3.57,7.27-5.31a1.39,1.39,0,0,1,1.2-.11A6,6,0,0,1,101.68,127.47Z" transform="translate(-9.74 -15.52)"/><path class="a" d="M27,157.63l-.6,0A1.1,1.1,0,0,1,25,156.55a1.13,1.13,0,0,1,1.11-1.4l8.85-1c.91-.1,1.19.53,1.3,1.25a1,1,0,0,1-1,1.31c-2.74.34-5.49.7-8.23,1.06Z" transform="translate(-9.74 -15.52)"/><path class="a" d="M138.08,83.77c-.51,1-1,2-1.58,2.92-.93,1.63-1.86,3.27-2.83,4.87-.44.72-.94,1.52-2,.85-.91-.59-1-1.18-.33-2.25,1.32-2.23,2.62-4.49,3.91-6.74.79-1.37,1.76-1.48,2.56-.27A4.91,4.91,0,0,1,138.08,83.77Z" transform="translate(-9.74 -15.52)"/><path class="a" d="M153.71,29c-.27,2.89-.53,5.77-.83,8.65a1.22,1.22,0,0,1-1.61,1.17c-.89-.18-1.12-.72-1-1.6.33-2.76.58-5.52.89-8.28a1.12,1.12,0,0,1,1.38-1.14C153.25,27.91,153.77,28.2,153.71,29Z" transform="translate(-9.74 -15.52)"/><path class="a" d="M40.15,156c-.24-.3-.72-.64-.71-1a2.3,2.3,0,0,1,.56-1.61,5,5,0,0,1,1.94-.59c2.3-.52,4.62-1,6.92-1.54.77-.19,1,.22,1.26.77s.44,1.15-.27,1.56a1.43,1.43,0,0,1-.44.19C46.41,154.53,43.41,155.23,40.15,156Z" transform="translate(-9.74 -15.52)"/><path class="a" d="M148.76,56.81c-.2.87-.32,1.59-.53,2.28-.66,2.1-1.33,4.21-2,6.29-.46,1.33-1,1.59-2,1.21a1,1,0,0,1-.68-1.4c.83-2.64,1.61-5.29,2.45-7.93.4-1.25,1.18-1.62,2.2-1.1A3,3,0,0,1,148.76,56.81Z" transform="translate(-9.74 -15.52)"/></svg>